<?xml version="1.0" encoding="UTF-8"?>
<!DOCTYPE svg PUBLIC "-//W3C//DTD SVG 1.1//EN" "http://www.w3.org/Graphics/SVG/1.1/DTD/svg11.dtd">
<!-- Creator: CorelDRAW 2021 (64-Bit) -->
<svg xmlns="http://www.w3.org/2000/svg" xml:space="preserve" width="33.9898mm" height="17.69mm" version="1.1" style="shape-rendering:geometricPrecision; text-rendering:geometricPrecision; image-rendering:optimizeQuality; fill-rule:evenodd; clip-rule:evenodd"
viewBox="0 0 130.57 67.96"
 xmlns:xlink="http://www.w3.org/1999/xlink"
 xmlns:xodm="http://www.corel.com/coreldraw/odm/2003">
 <defs>
  <style type="text/css">
   <![CDATA[
    .fil6 {fill:#20A8E0;fill-rule:nonzero}
    .fil13 {fill:#24A9E1;fill-rule:nonzero}
    .fil15 {fill:#25ADE3;fill-rule:nonzero}
    .fil41 {fill:#26ACE3;fill-rule:nonzero}
    .fil27 {fill:#2AAEE4;fill-rule:nonzero}
    .fil31 {fill:#2DAEE4;fill-rule:nonzero}
    .fil0 {fill:#35B0E5;fill-rule:nonzero}
    .fil33 {fill:#39B1E4;fill-rule:nonzero}
    .fil8 {fill:#3BB0E3;fill-rule:nonzero}
    .fil4 {fill:#3FB3E5;fill-rule:nonzero}
    .fil46 {fill:#49B5E6;fill-rule:nonzero}
    .fil19 {fill:#4BB9E7;fill-rule:nonzero}
    .fil22 {fill:#53BEE8;fill-rule:nonzero}
    .fil52 {fill:#54BCE7;fill-rule:nonzero}
    .fil44 {fill:#59BBE8;fill-rule:nonzero}
    .fil43 {fill:#63C0E9;fill-rule:nonzero}
    .fil66 {fill:#69C5EB;fill-rule:nonzero}
    .fil55 {fill:#6DC5EA;fill-rule:nonzero}
    .fil61 {fill:#6DC5EB;fill-rule:nonzero}
    .fil36 {fill:#74C8EC;fill-rule:nonzero}
    .fil25 {fill:#76CAED;fill-rule:nonzero}
    .fil53 {fill:#8ED3F0;fill-rule:nonzero}
    .fil50 {fill:#A3DDF3;fill-rule:nonzero}
    .fil64 {fill:#C5E9F7;fill-rule:nonzero}
    .fil17 {fill:#E14094;fill-rule:nonzero}
    .fil9 {fill:#E14696;fill-rule:nonzero}
    .fil29 {fill:#E24397;fill-rule:nonzero}
    .fil32 {fill:#E24497;fill-rule:nonzero}
    .fil1 {fill:#E24A99;fill-rule:nonzero}
    .fil20 {fill:#E3509C;fill-rule:nonzero}
    .fil37 {fill:#E3559D;fill-rule:nonzero}
    .fil39 {fill:#E3599F;fill-rule:nonzero}
    .fil5 {fill:#E35A9F;fill-rule:nonzero}
    .fil58 {fill:#E361A3;fill-rule:nonzero}
    .fil23 {fill:#E363A4;fill-rule:nonzero}
    .fil69 {fill:#E3F4FB;fill-rule:nonzero}
    .fil7 {fill:#E461A1;fill-rule:nonzero}
    .fil49 {fill:#E463A4;fill-rule:nonzero}
    .fil42 {fill:#E56AA7;fill-rule:nonzero}
    .fil12 {fill:#E56EA8;fill-rule:nonzero}
    .fil47 {fill:#E77EB1;fill-rule:nonzero}
    .fil24 {fill:#E98AB8;fill-rule:nonzero}
    .fil40 {fill:#EA8CBA;fill-rule:nonzero}
    .fil59 {fill:#EA8EBB;fill-rule:nonzero}
    .fil68 {fill:#EFA5C8;fill-rule:nonzero}
    .fil54 {fill:#EFA9CA;fill-rule:nonzero}
    .fil60 {fill:#F2BAD5;fill-rule:nonzero}
    .fil18 {fill:#F8D4E4;fill-rule:nonzero}
    .fil28 {fill:#FDE93D;fill-rule:nonzero}
    .fil48 {fill:#FDEF75;fill-rule:nonzero}
    .fil62 {fill:#FDF6B5;fill-rule:nonzero}
    .fil16 {fill:#FFEA3E;fill-rule:nonzero}
    .fil34 {fill:#FFEB42;fill-rule:nonzero}
    .fil2 {fill:#FFEB45;fill-rule:nonzero}
    .fil11 {fill:#FFEB55;fill-rule:nonzero}
    .fil38 {fill:#FFEC5B;fill-rule:nonzero}
    .fil10 {fill:#FFEC5C;fill-rule:nonzero}
    .fil21 {fill:#FFED5E;fill-rule:nonzero}
    .fil3 {fill:#FFED5F;fill-rule:nonzero}
    .fil14 {fill:#FFED63;fill-rule:nonzero}
    .fil35 {fill:#FFED69;fill-rule:nonzero}
    .fil45 {fill:#FFEE66;fill-rule:nonzero}
    .fil63 {fill:#FFF17F;fill-rule:nonzero}
    .fil65 {fill:#FFF387;fill-rule:nonzero}
    .fil56 {fill:#FFF388;fill-rule:nonzero}
    .fil26 {fill:#FFF496;fill-rule:nonzero}
    .fil71 {fill:#FFF5A1;fill-rule:nonzero}
    .fil51 {fill:#FFF6AD;fill-rule:nonzero}
    .fil67 {fill:#FFF6B1;fill-rule:nonzero}
    .fil57 {fill:#FFF8CA;fill-rule:nonzero}
    .fil70 {fill:#FFFADA;fill-rule:nonzero}
    .fil72 {fill:#FFFCE3;fill-rule:nonzero}
    .fil30 {fill:white;fill-rule:nonzero}
   ]]>
  </style>
 </defs>
 <g id="Layer_x0020_1">
  <metadata id="CorelCorpID_0Corel-Layer"/>
  <g id="_1436544023280">
   <path class="fil0" d="M120.69 4.23c-0.12,-0.02 -0.3,0.05 -0.37,-0.12 -0.07,-0.16 0.05,-0.28 0.14,-0.39 0.33,-0.38 0.67,-0.76 1.02,-1.12 0.13,-0.14 0.31,-0.27 0.52,-0.08 0.18,0.17 0.1,0.31 -0.01,0.47 -0.24,0.38 -0.22,0.92 -0.78,1.11 -0.17,0.06 -0.33,0.12 -0.53,0.12z"/>
   <path class="fil1" d="M83.29 4.73c-0.2,-0.02 -0.38,-0.01 -0.46,-0.17 -0.07,-0.15 0.07,-0.26 0.16,-0.37 0.34,-0.37 0.67,-0.75 1.01,-1.12 0.13,-0.14 0.3,-0.22 0.49,-0.1 0.21,0.13 0.12,0.3 0.03,0.47 -0.23,0.45 -0.32,1 -0.9,1.18 -0.12,0.04 -0.24,0.08 -0.33,0.11z"/>
   <path class="fil2" d="M101.95 4.24c-0.14,-0.02 -0.3,0.05 -0.38,-0.12 -0.06,-0.14 0.05,-0.24 0.13,-0.33 0.33,-0.38 0.65,-0.77 1,-1.14 0.13,-0.14 0.31,-0.28 0.52,-0.14 0.24,0.17 0.06,0.34 -0,0.52 -0.16,0.45 -0.25,0.93 -0.81,1.1 -0.15,0.05 -0.3,0.09 -0.46,0.11z"/>
   <path class="fil3" d="M98.55 4.97c-0.01,0.28 -0.6,0.95 -0.86,0.99 -0.09,0.02 -0.24,-0.02 -0.23,-0.07 0.07,-0.31 0.03,-0.66 0.14,-0.94 0.1,-0.27 0.5,-0.21 0.77,-0.26 0.1,-0.02 0.15,0.18 0.18,0.28z"/>
   <path class="fil4" d="M117.28 4.97c0,0.26 -0.54,0.91 -0.8,0.97 -0.1,0.02 -0.23,0.01 -0.23,-0.07 0.01,-0.31 -0,-0.66 0.12,-0.94 0.11,-0.24 0.47,-0.2 0.73,-0.25 0.14,-0.03 0.14,0.18 0.18,0.29z"/>
   <path class="fil5" d="M78.76 6.4c-0.02,-0.37 0.02,-0.75 0.19,-1.05 0.1,-0.18 0.51,-0.29 0.72,-0.16 0.29,0.17 0.02,0.44 -0.04,0.67 -0.16,0.38 -0.37,0.69 -0.87,0.55z"/>
   <path class="fil6" d="M116.73 6.59c-0.1,-0.02 -0.25,0.06 -0.29,-0.07 -0.03,-0.08 0.02,-0.23 0.09,-0.29 0.19,-0.18 0.4,-0.35 0.63,-0.49 0.19,-0.12 0.32,-0.02 0.34,0.19 0.01,0.14 -0.61,0.65 -0.77,0.66z"/>
   <path class="fil7" d="M79.85 6.16c0.47,0.51 -0.35,0.48 -0.36,0.82 -0,0.06 -0.4,0.18 -0.58,-0.06 -0.02,-0.03 0.04,-0.13 0.07,-0.2 0.21,-0.31 0.43,-0.61 0.87,-0.57z"/>
   <path class="fil8" d="M119.33 2.37c0.13,-0.46 0.03,-0.98 0.68,-0.89 0.08,0.01 0.19,-0.02 0.23,0.08 0.04,0.1 -0.05,0.16 -0.09,0.23 -0.18,0.28 -0.45,0.43 -0.82,0.57z"/>
   <path class="fil9" d="M81.87 2.74c0.16,-0.33 0.01,-0.85 0.64,-0.81 0.09,0.01 0.19,-0.02 0.24,0.07 0.04,0.09 0.01,0.17 -0.06,0.25 -0.2,0.25 -0.41,0.5 -0.82,0.48z"/>
   <path class="fil10" d="M100.66 2.32c0.06,-0.43 -0.04,-0.9 0.63,-0.84 0.25,0.02 0.27,0.08 0.15,0.3 -0.17,0.31 -0.44,0.43 -0.78,0.55z"/>
   <path class="fil11" d="M106.32 6.45c0.03,-0.14 -0.03,-0.37 0.21,-0.35 0.19,0.02 0.33,0.17 0.31,0.37 -0.01,0.17 -0.14,0.31 -0.31,0.33 -0.25,0.02 -0.19,-0.2 -0.22,-0.35z"/>
   <path class="fil12" d="M83.1 3.12c-0.01,0.2 -0.11,0.37 -0.3,0.4 -0.22,0.03 -0.23,-0.18 -0.23,-0.34 -0,-0.16 0,-0.34 0.23,-0.35 0.2,-0.01 0.29,0.11 0.3,0.3z"/>
   <path class="fil13" d="M125.07 6.48c0.03,-0.17 -0.04,-0.4 0.21,-0.38 0.17,0.01 0.31,0.16 0.3,0.33 -0.01,0.18 -0.11,0.37 -0.33,0.36 -0.22,-0 -0.14,-0.21 -0.18,-0.31z"/>
   <path class="fil14" d="M101.5 3.06c-0.2,-0.05 -0.17,-0.21 -0.17,-0.35 -0.01,-0.18 0.04,-0.34 0.25,-0.34 0.2,-0 0.28,0.14 0.27,0.33 -0.02,0.22 -0.19,0.29 -0.34,0.36z"/>
   <path class="fil15" d="M120.59 2.65c-0.05,0.19 -0.11,0.38 -0.33,0.39 -0.21,0.01 -0.17,-0.18 -0.18,-0.32 -0.01,-0.17 0.03,-0.33 0.25,-0.34 0.18,-0 0.24,0.12 0.26,0.27z"/>
   <path class="fil16" d="M98.49 5.75c0.07,0.05 0.2,0.14 0.19,0.14 -0.16,0.26 -0.21,0.65 -0.64,0.64 -0.18,-0.11 -0.38,-0.21 -0.06,-0.39 0.19,-0.11 0.31,-0.3 0.51,-0.39z"/>
   <path class="fil17" d="M87.75 6.57c0.21,0.02 0.31,0.16 0.33,0.32 0.03,0.18 -0.11,0.31 -0.27,0.35 -0.21,0.04 -0.22,-0.13 -0.21,-0.28 0.01,-0.15 -0.06,-0.33 0.15,-0.39z"/>
   <path class="fil18" d="M79.85 6.16c-0.35,0.1 -0.56,0.41 -0.87,0.57 0.02,-0.17 -0.16,-0.21 -0.22,-0.33 0.39,-0.02 0.62,-0.3 0.87,-0.55 -0.01,0.16 0.13,0.22 0.23,0.32z"/>
   <path class="fil16" d="M99.21 3.9c-0.14,0.24 0.04,0.53 -0.28,0.63 -0.09,0.03 -0.18,-0.03 -0.2,-0.13 -0.06,-0.32 0.19,-0.38 0.48,-0.49z"/>
   <path class="fil19" d="M117.96 3.89c-0.12,0.26 0,0.55 -0.29,0.64 -0.12,0.04 -0.21,-0.06 -0.21,-0.18 -0.01,-0.31 0.22,-0.36 0.51,-0.46z"/>
   <path class="fil20" d="M80.46 4.3c-0.12,0.31 0.03,0.58 -0.25,0.68 -0.11,0.05 -0.22,-0.03 -0.24,-0.16 -0.05,-0.29 0.22,-0.33 0.48,-0.53z"/>
   <path class="fil3" d="M98.49 5.75c-0.11,0.18 -0.25,0.34 -0.45,0.43 -0.28,0.12 -0.03,0.24 0,0.35 -0.13,0.02 -0.29,0.16 -0.38,-0.01 -0.04,-0.07 0.05,-0.28 0.13,-0.32 0.24,-0.14 0.37,-0.44 0.69,-0.44z"/>
   <path class="fil21" d="M103.81 4.74c-0.03,0.13 -0.07,0.26 -0.2,0.3 -0.14,0.04 -0.19,-0.06 -0.19,-0.18 -0,-0.12 -0.03,-0.27 0.16,-0.28 0.12,-0.01 0.21,0.04 0.24,0.17z"/>
   <path class="fil22" d="M122.33 4.57c0.11,0.01 0.21,0.04 0.22,0.18 0,0.14 -0.1,0.23 -0.22,0.28 -0.16,0.06 -0.17,-0.08 -0.18,-0.18 -0.01,-0.13 0,-0.26 0.18,-0.27z"/>
   <path class="fil23" d="M85.04 5.24c-0.06,0.11 -0.08,0.26 -0.24,0.26 -0.11,-0 -0.14,-0.1 -0.14,-0.2 -0.01,-0.16 0.07,-0.24 0.23,-0.23 0.09,0.01 0.18,0.04 0.15,0.17z"/>
   <path class="fil24" d="M84.96 0.48c0.01,0.25 -0.13,0.27 -0.24,0.32 -0.07,0.03 -0.15,0.01 -0.15,-0.08 0.01,-0.15 0.13,-0.2 0.25,-0.24 0.08,-0.03 0.14,-0.01 0.14,0.01z"/>
   <path class="fil25" d="M122.44 0.11c-0.04,0.14 -0.14,0.2 -0.27,0.22 -0.1,0.02 -0.12,-0.06 -0.1,-0.13 0.03,-0.12 0.14,-0.16 0.24,-0.19 0.07,-0.03 0.14,0.01 0.14,0.1z"/>
   <path class="fil26" d="M103.31 0.31c0.05,-0.18 0.14,-0.31 0.32,-0.3 0.08,0 0.11,0.1 0.08,0.16 -0.08,0.18 -0.23,0.19 -0.4,0.14z"/>
   <path class="fil27" d="M110.81 13.9c-0.3,-0.74 0.4,-0.78 0.76,-1 0.37,-0.22 0.61,-0.45 0.78,-0.86 0.17,-0.41 0.66,-0.58 1.07,-0.73 0.22,-0.08 0.16,0.21 0.24,0.33 0.15,0.22 0.11,0.75 0.63,0.42 0.37,-0 0.46,-0.27 0.54,-0.56 0.13,-0.15 0.24,-0.31 0.38,-0.46 0.13,-0.13 0.34,-0.26 0.48,-0.13 0.27,0.23 0.51,0.22 0.77,0.03 0.08,-0.06 0.17,-0.06 0.24,0.02 0.1,0.12 0.07,0.24 -0.01,0.35 -0.11,0.16 -0.32,0.25 -0.33,0.48 -0.01,0.12 -0.05,0.27 0.08,0.35 0.12,0.07 0.23,0.02 0.34,-0.08 0.73,-0.62 1.38,-1.32 1.9,-2.13 0.26,-0.41 0.74,-0.55 1.22,-0.41 0.39,0.12 0.81,0.33 1.09,-0.25 0.11,-0.23 0.42,-0.27 0.68,-0.26 0.5,0.02 0.97,-0.02 1.44,-0.37 0.04,0.52 -0.01,0.93 -0.33,1.29 -0.17,0.19 -0.33,0.43 -0.1,0.68 0.4,0.41 0.08,0.63 -0.23,0.77 -0.29,0.13 -0.47,0.3 -0.57,0.6 -0.12,0.34 -0.27,0.68 -0.66,0.81 -0.25,0.08 -0.19,0.36 -0.35,0.52 -0.38,0.36 -0.76,0.72 -1.28,0.87 -0.19,0.05 -0.18,0.2 -0.23,0.33 -0.15,0.41 -0.31,0.81 -0.62,1.13 -0.05,0.19 -0.11,0.38 -0.33,0.44 -0.43,0.14 -0.67,0.51 -0.96,0.81 -0.05,0.05 -0.1,0.2 -0.06,0.24 0.62,0.77 -0.21,1.1 -0.55,1.45 -0.3,0.32 -0.36,0.57 -0.21,0.87 0.2,0.4 -0.06,0.63 -0.31,0.6 -0.41,-0.06 -0.77,0.12 -1.16,0.06 -0.15,-0.12 -0.3,-0.12 -0.43,0.03 -0.05,0.16 -0.08,0.26 0.14,0.37 0.28,0.13 0.31,0.4 -0.01,0.56 -0.61,0.32 -0.73,0.56 -0.56,1.21 0.05,0.18 -0.08,0.26 -0.16,0.37 -0.07,0.11 -0.21,0.11 -0.29,0.02 -0.21,-0.24 -0.41,-0.22 -0.58,0.02 -0.18,0.24 -0.49,0.45 -0.27,0.8 0.16,0.26 0.1,0.37 -0.14,0.57 -0.54,0.46 -0.85,1.12 -1.2,1.72 -0.06,0.11 -0.11,0.29 -0.01,0.41 0.09,0.11 0.38,0.1 0.24,0.32 -0.16,0.26 -0.37,0.5 -0.65,0.65 -0.11,0.06 -0.2,-0.01 -0.24,-0.14 -0.07,-0.23 -0.24,-0.2 -0.39,-0.12 -0.15,0.08 -0.17,0.22 -0.11,0.38 0.03,0.07 0.04,0.14 0.06,0.21 0.2,0.55 0.01,0.9 -0.6,1.07 -0.02,-0.05 -0.04,-0.1 -0.05,-0.15 -0.05,-0.31 -0.09,-0.72 -0.45,-0.74 -0.44,-0.02 -0.97,0.73 -0.83,1.11 0.09,0.24 0.06,0.51 0.23,0.75 0.22,0.31 -0.14,0.59 -0.29,0.86 -0.12,0.23 -0.38,0.19 -0.59,0.08 -0.22,-0.11 -0.36,-0.1 -0.45,0.16 -0.15,0.43 -0.77,0.4 -0.89,0.9 -0.13,0.56 -0.44,1.09 -0.47,1.68 -0.01,0.18 -0.12,0.28 -0.19,0.41 -0.25,0.5 -0.41,1.04 -1.07,1.17 -0.03,0.77 -0.66,1.16 -1.07,1.69 -0.64,0.83 -1.52,1.37 -2.35,1.97 -0.16,0.11 -0.32,0.08 -0.45,-0.04 -0.4,-0.43 -0.87,-0.5 -1.41,-0.34 -0.23,0.07 -0.52,0.1 -0.54,-0.31 -0.01,-0.14 -0.13,-0.21 -0.27,-0.21 -0.9,-0.03 -1.38,-0.68 -1.83,-1.32 -0.47,-0.68 -1.05,-1.22 -1.74,-1.68 -0.28,-0.19 -0.46,-0.5 -0.67,-0.78 -0.35,-0.47 -0.41,-1.16 -1.1,-1.42 -0.66,-0.25 -0.86,-1 -0.6,-1.76 0.08,-0.26 0.18,-0.51 0.13,-0.79 -0.03,-0.2 0.06,-0.35 0.21,-0.48 1.2,-1.07 2.27,-2.28 3.32,-3.49 0.46,-0.53 1.08,-0.98 1.35,-1.71 0.07,-0.21 0.44,-0.33 0.62,-0.57 0.35,-0.45 0.84,-0.74 1.33,-1.02 0.24,-0.14 0.41,-0.3 0.38,-0.6 -0.01,-0.16 0.05,-0.23 0.21,-0.31 0.3,-0.15 0.61,-0.36 0.39,-0.8 -0.01,-0.01 -0.02,-0.04 -0.01,-0.05 0.03,-0.06 0.07,-0.17 0.1,-0.17 0.6,0.04 0.43,-0.85 1.04,-0.83 0.73,0.03 0.99,-0.65 1.43,-1.04 0.06,-0.05 0.04,-0.22 0.09,-0.24 0.77,-0.29 0.72,-1.21 1.24,-1.63 0.62,-0.5 0.95,-1.33 1.78,-1.59 0.14,-0.04 0.24,-0.16 0.26,-0.32 0.08,-0.58 0.38,-0.83 0.97,-0.69 0.11,0.03 0.23,-0.01 0.29,-0.11 0.48,-0.82 1.21,-1.39 1.9,-2 0.25,-0.1 0.29,0.01 0.23,0.23l0 -0c0.03,0.43 -0.3,0.61 -0.56,0.85 -0.15,0.1 -0.33,0.14 -0.42,0.32 -0.14,0.25 -0.25,0.49 0.2,0.48 0.22,-0.01 0.34,0.06 0.34,0.29 0.58,0.24 0.79,0.16 1.08,-0.42z"/>
   <path class="fil28" d="M91.52 12.06c0.17,0.29 -0.45,0.47 -0.12,0.78 0.11,0.16 0.04,0.24 -0.12,0.19 -0.14,-0.04 -0.23,-0.01 -0.31,0.11 -0.18,0.11 -0.35,0.23 -0.53,0.34 -0.3,0.49 -0.3,0.5 0.26,0.62 0.11,0.03 0.18,0.07 0.26,0.15 0.43,0.39 1.14,0.18 1.11,-0.37 -0.02,-0.49 0.17,-0.63 0.53,-0.76 0.03,-0.18 0.2,-0.19 0.32,-0.26 0.31,-0.2 0.58,-0.38 0.7,-0.81 0.13,-0.43 0.65,-0.57 1.05,-0.74 0.19,-0.08 0.17,0.16 0.24,0.28 0.11,0.19 0.06,0.58 0.33,0.55 0.28,-0.03 0.64,-0.09 0.75,-0.49 0.09,-0.3 0.38,-0.47 0.6,-0.69 0.13,-0.12 0.32,-0.16 0.44,-0.02 0.21,0.25 0.42,0.14 0.63,0.03 0.12,-0.06 0.23,-0.13 0.33,0.01 0.09,0.12 0.04,0.24 -0.05,0.34 -0.07,0.08 -0.16,0.15 -0.23,0.24 -0.12,0.17 -0.17,0.41 -0.03,0.55 0.17,0.17 0.31,-0.02 0.45,-0.14 0.72,-0.59 1.31,-1.29 1.82,-2.05 0.27,-0.4 0.73,-0.54 1.23,-0.39 0.37,0.11 0.77,0.33 1.04,-0.24 0.11,-0.24 0.44,-0.29 0.73,-0.28 0.49,0.02 0.97,-0.02 1.41,-0.38 0.02,0.55 -0.04,0.99 -0.39,1.37 -0.15,0.16 -0.2,0.41 -0.02,0.6 0.39,0.38 0.06,0.65 -0.21,0.75 -0.38,0.14 -0.49,0.42 -0.66,0.72 -0.43,0.74 -0.99,1.37 -1.74,1.82 -0.4,0.24 -0.9,0.41 -0.91,1.02 -0.01,0.17 -0.14,0.33 -0.21,0.49 -0.11,0.24 -0.19,0.51 -0.45,0.65 -0.5,0.06 -0.7,0.53 -1.05,0.79 -0.07,0.05 -0.11,0.18 -0.07,0.3 0.06,0.18 0.38,0.26 0.23,0.5 -0.21,0.33 -0.41,0.74 -0.73,0.92 -0.45,0.25 -0.38,0.54 -0.27,0.89 0.04,0.15 0.23,0.32 0.04,0.43 -0.17,0.1 -0.36,0.28 -0.59,0.17 -0.42,-0.2 -0.81,0.22 -1.22,0.04 -0.08,-0.03 -0.14,0.1 -0.16,0.19 -0.04,0.15 0.08,0.19 0.18,0.22 0.16,0.05 0.26,0.14 0.24,0.31 -0.02,0.17 -0.14,0.23 -0.3,0.26 -0.3,0.05 -0.36,0.37 -0.57,0.54 -0.27,0.22 -0.07,0.45 0.07,0.66 0.1,0.15 -0.01,0.24 -0.1,0.33 -0.1,0.1 -0.23,0.18 -0.33,0.06 -0.24,-0.28 -0.43,-0.21 -0.62,0.03 -0.19,0.25 -0.49,0.49 -0.25,0.85 0.14,0.21 0.12,0.3 -0.1,0.47 -0.57,0.46 -0.89,1.12 -1.25,1.73 -0.07,0.11 -0.06,0.28 0.02,0.42 0.19,0.32 -0.1,0.94 -0.46,0.99 -0.07,0.01 -0.16,0.01 -0.18,-0.07 -0.06,-0.27 -0.23,-0.33 -0.44,-0.2 -0.22,0.14 -0.14,0.4 -0.03,0.53 0.4,0.45 0,0.72 -0.22,0.99 -0.11,0.13 -0.39,0.34 -0.49,-0.11 -0.05,-0.23 -0.05,-0.68 -0.37,-0.61 -0.31,0.07 -0.74,0.22 -0.79,0.69 -0.09,0.15 -0.12,0.31 -0.01,0.47 -0.01,0.43 0.4,0.8 0.08,1.29 -0.23,0.35 -0.43,0.51 -0.82,0.32 -0.29,-0.19 -0.36,0.02 -0.43,0.23 -0.15,0.32 -0.58,0.32 -0.74,0.61 -0.31,0.57 -0.46,1.2 -0.59,1.83 -0.04,0.19 -0.14,0.35 -0.19,0.51 -0.19,0.57 -0.47,1 -1.06,1.19 -0.25,1 -1.05,1.59 -1.69,2.29 -0.49,0.53 -1.14,0.87 -1.71,1.3 -0.14,0.1 -0.27,0.1 -0.39,-0.01 -0.47,-0.4 -0.96,-0.61 -1.59,-0.35 -0.12,0.05 -0.39,0.1 -0.4,-0.14 0,-0.48 -0.32,-0.34 -0.59,-0.4 -0.64,-0.15 -1.14,-0.61 -1.44,-1.14 -0.37,-0.65 -1.02,-1 -1.39,-1.6 -0.15,-0.23 -0.45,-0.19 -0.65,-0.37 -0.44,-0.39 -0.61,-0.96 -0.92,-1.44 -0.14,-0.22 -0.25,-0.41 -0.49,-0.53 -0.84,-0.43 -1.06,-1.03 -0.74,-1.92 0.02,-0.07 0.08,-0.14 0.07,-0.2 -0.15,-0.85 0.46,-1.28 0.98,-1.73 0.93,-0.81 1.68,-1.79 2.49,-2.7 0.51,-0.56 0.99,-1.19 1.47,-1.77 0.5,-0.61 1.11,-1.26 1.91,-1.61 0.25,-0.11 0.41,-0.29 0.38,-0.59 -0.01,-0.15 0.03,-0.24 0.21,-0.32 0.31,-0.15 0.58,-0.37 0.44,-0.8 -0.03,-0.11 0.87,-1.04 1,-1.04 0.78,-0.02 1.15,-0.6 1.52,-1.15 0.09,-0.13 0.18,-0.21 0.31,-0.27 0.27,-0.13 0.4,-0.31 0.47,-0.64 0.08,-0.37 0.35,-0.78 0.66,-1 0.5,-0.37 0.84,-0.85 1.23,-1.3 0.08,-0.1 0.19,-0.1 0.3,-0.1 0.28,-0.01 0.38,-0.19 0.4,-0.42 0.06,-0.52 0.34,-0.71 0.85,-0.67 0.56,0.05 0.62,-0.55 0.95,-0.8 0.55,-0.42 0.94,-1.03 1.55,-1.39 0.05,-0.04 0.09,-0.04 0.13,0.01z"/>
   <path class="fil29" d="M77.45 11.85c0.27,-0.31 0.49,-0.78 1.02,-0.32 0.1,0.08 0.28,0.01 0.41,-0.05 0.12,-0.05 0.26,-0.2 0.37,-0.01 0.09,0.15 -0.02,0.27 -0.12,0.38 -0.05,0.05 -0.11,0.1 -0.14,0.16 -0.08,0.18 -0.19,0.41 -0.03,0.56 0.2,0.19 0.35,-0.04 0.49,-0.17 0.66,-0.62 1.29,-1.26 1.78,-2.03 0.28,-0.44 0.82,-0.57 1.48,-0.31 0.32,0.12 0.49,0.2 0.67,-0.19 0.14,-0.3 0.49,-0.42 0.84,-0.4 0.49,0.02 0.97,0.01 1.4,-0.38 0.01,0.54 -0.02,0.98 -0.38,1.34 -0.15,0.15 -0.24,0.4 -0.06,0.59 0.45,0.48 0.02,0.7 -0.29,0.85 -0.26,0.13 -0.35,0.31 -0.49,0.53 -0.47,0.78 -1.01,1.48 -1.83,1.95 -0.34,0.19 -0.77,0.37 -0.82,0.9 -0.02,0.18 -0.07,0.4 -0.26,0.52 -0.26,0.19 -0.31,0.54 -0.56,0.74 -0.43,0.12 -0.59,0.56 -0.93,0.8 -0.1,0.07 -0.12,0.21 -0.09,0.35 0.04,0.17 0.37,0.23 0.23,0.44 -0.23,0.34 -0.44,0.74 -0.77,0.96 -0.39,0.27 -0.35,0.54 -0.23,0.88 0.05,0.14 0.22,0.32 0.02,0.42 -0.18,0.09 -0.34,0.39 -0.61,0.16 -0.07,-0.07 -0.19,-0.13 -0.24,-0.07 -0.29,0.33 -0.64,0.08 -0.96,0.12 -0.1,0.14 -0.29,0.27 0,0.41 0.36,0.12 0.4,0.4 0.09,0.51 -0.31,0.1 -0.39,0.35 -0.6,0.5 -0.25,0.19 -0.29,0.42 -0.09,0.65 0.16,0.19 0.1,0.31 -0.04,0.46 -0.16,0.17 -0.28,0.11 -0.4,-0.04 -0.13,-0.18 -0.3,-0.13 -0.41,0.01 -0.23,0.27 -0.6,0.53 -0.36,0.93 0.17,0.3 0.07,0.36 -0.15,0.55 -0.53,0.46 -0.85,1.08 -1.18,1.68 -0.08,0.15 -0.25,0.46 0.15,0.56 0.16,0.04 0.11,0.17 0.04,0.25 -0.17,0.19 -0.34,0.38 -0.53,0.54 -0.1,0.1 -0.26,0.1 -0.31,-0.06 -0.07,-0.27 -0.24,-0.25 -0.41,-0.17 -0.21,0.1 -0.18,0.28 -0.09,0.46 0.17,0.35 0.34,0.68 -0.08,1 -0.13,0.1 -0.25,0.22 -0.41,0.2 -0.18,-0.02 -0.06,-0.23 -0.14,-0.31 -0.17,-0.17 -0.03,-0.65 -0.44,-0.54 -0.57,0.14 -0.92,0.74 -0.81,1.14 0.12,0.43 0.42,0.83 0.12,1.33 -0.21,0.35 -0.46,0.48 -0.79,0.32 -0.24,-0.11 -0.32,-0.04 -0.41,0.15 -0.04,0.08 -0.08,0.19 -0.15,0.22 -1.03,0.47 -0.86,1.56 -1.27,2.35 -0.25,0.48 -0.07,1.34 -0.96,1.4 -0.13,0.01 -0.21,0.15 -0.26,0.27 -0.53,1.42 -1.68,2.29 -2.82,3.17 -0.16,0.12 -0.34,0.2 -0.5,0.33 -0.2,0.16 -0.38,0.17 -0.58,-0.01 -0.39,-0.34 -0.81,-0.49 -1.34,-0.31 -0.25,0.09 -0.56,0.14 -0.6,-0.29 -0.01,-0.12 -0.11,-0.19 -0.23,-0.2 -1.04,-0.09 -1.49,-0.91 -2.07,-1.61 -0.42,-0.52 -0.83,-1.09 -1.49,-1.4 -0.28,-0.13 -0.49,-0.42 -0.68,-0.73 -0.32,-0.49 -0.41,-1.17 -1.08,-1.44 -0.65,-0.27 -0.88,-0.94 -0.68,-1.64 0.01,-0.05 0.06,-0.1 0.05,-0.15 -0.05,-1.34 1.11,-1.88 1.81,-2.71 0.69,-0.81 1.47,-1.55 2.09,-2.42 0.19,-0.27 0.53,-0.47 0.72,-0.78 0.36,-0.6 0.97,-0.98 1.39,-1.54 0.19,-0.25 0.56,-0.37 0.85,-0.54 0.25,-0.15 0.5,-0.31 0.46,-0.67 -0.02,-0.14 0.05,-0.23 0.19,-0.29 0.31,-0.16 0.58,-0.36 0.46,-0.78 -0.03,-0.11 0.92,-1.09 1.04,-1.08 0.77,0.02 1.09,-0.59 1.48,-1.09 0.03,-0.04 0.03,-0.12 0.07,-0.14 0.74,-0.33 0.72,-1.27 1.27,-1.68 0.66,-0.48 0.94,-1.35 1.79,-1.62 0.14,-0.04 0.17,-0.21 0.22,-0.35 0.14,-0.44 0.33,-0.83 0.92,-0.59 0.14,0.06 0.24,-0 0.32,-0.12 0.52,-0.83 1.27,-1.43 2,-2.05 0.15,0.17 0.12,0.7 -0.08,0.79 -0.25,0.11 -0.41,0.34 -0.67,0.43 -0.2,0.33 -0.52,0.7 0.24,0.69 0.06,0 0.14,0.06 0.17,0.12 0.15,0.36 0.41,0.3 0.68,0.18 0.32,-0.14 0.52,-0.43 0.41,-0.73 -0.13,-0.36 0.04,-0.39 0.29,-0.47 0.48,-0.17 1.07,-0.38 1.19,-0.84 0.16,-0.6 0.61,-0.68 0.99,-0.94 0.23,-0.16 0.31,-0.08 0.42,0.17 0.11,0.23 0.02,0.69 0.52,0.6 0.14,-0.1 0.32,-0.16 0.42,0.01 0.1,0.16 -0.07,0.29 -0.14,0.42 -0.02,0.06 -0.08,0.12 -0.03,0.18 0.04,0.05 0.09,0.01 0.13,-0.02 0.15,-0.29 0.4,-0.54 0.23,-0.92 -0.07,-0.15 0.06,-0.3 0.15,-0.43z"/>
   <path class="fil30" d="M14.55 18.27c0.83,0.64 1.42,1.45 1.65,2.48 0.19,0.85 -0.17,1.59 -0.93,1.93 -0.74,0.33 -1.53,0.12 -2.04,-0.55 -0.19,-0.24 -0.35,-0.51 -0.52,-0.76 -1.58,-2.28 -4.78,-2.75 -6.97,-1.03 -0.81,0.64 -1.34,1.47 -1.65,2.44 -0.6,1.89 -0.59,3.79 -0,5.67 0.68,2.16 2.3,3.37 4.56,3.48 1.64,0.08 3.16,-0.34 4.61,-1.08 0.23,-0.12 0.3,-0.26 0.3,-0.51 -0.01,-0.69 -0.02,-1.38 0,-2.07 0.01,-0.31 -0.1,-0.41 -0.4,-0.4 -0.82,0.02 -1.63,0.01 -2.45,0.01 -0.31,-0 -0.62,-0.01 -0.92,-0.09 -0.74,-0.2 -1.03,-0.55 -1.01,-1.27 0.02,-0.67 0.43,-1.15 1.11,-1.28 0.16,-0.03 0.33,-0.06 0.49,-0.06 1.58,0.02 3.16,-0.07 4.74,0.05 1.05,0.09 1.61,0.55 1.66,1.58 0.08,1.48 0.08,2.97 -0.01,4.46 -0.03,0.56 -0.3,1.01 -0.75,1.32 -3.33,2.35 -8.3,2.86 -11.74,1.03 -1.93,-1.03 -3.16,-2.65 -3.76,-4.72 -0.7,-2.4 -0.66,-4.8 0.2,-7.16 0.75,-2.07 2.16,-3.56 4.2,-4.39 2.66,-1.07 5.36,-1.16 8.06,-0.09 0.49,0.19 0.96,0.44 1.36,0.79 -0.09,0.29 -0.33,0.14 -0.5,0.14 -1.61,0.01 -3.22,0.01 -4.83,0.01 -0.11,0 -0.24,-0.03 -0.43,0.06 0.01,-0 0.11,0.1 0.07,0.03 -0.01,-0.02 0,-0.03 0.03,-0.05 0.13,-0.09 0.28,-0.03 0.41,-0.03 1.72,-0.01 3.44,0 5.16,-0.01 0.11,0 0.22,-0.01 0.32,0.05z"/>
   <path class="fil30" d="M37.42 25.73c0,-2.23 -0,-4.47 0,-6.7 0,-1.56 0.61,-2.18 2.18,-2.18 2.8,-0.01 5.6,-0.01 8.39,0 1.11,0 1.67,0.5 1.66,1.43 -0.02,0.77 -0.52,1.28 -1.37,1.3 -1.13,0.03 -2.25,0.01 -3.38,0.01 -1.14,0 -2.29,0.01 -3.43,-0 -0.33,-0.01 -0.48,0.06 -0.48,0.45 0.02,1.2 0.02,2.4 0,3.59 -0.01,0.39 0.16,0.44 0.48,0.43 1.73,-0.01 3.45,-0.01 5.18,0 0.29,0 0.58,0.03 0.86,0.1 0.57,0.14 0.92,0.59 0.94,1.18 0.03,0.65 -0.27,1.1 -0.84,1.31 -0.26,0.1 -0.53,0.11 -0.81,0.11 -1.76,-0 -3.52,0.01 -5.28,-0.01 -0.44,-0.01 -0.53,0.14 -0.53,0.55 -0,1.89 0.09,3.78 -0.04,5.66 -0.09,1.19 -0.76,1.79 -1.85,1.76 -0.99,-0.03 -1.65,-0.77 -1.66,-1.91 -0.02,-2.36 -0.01,-4.72 -0.01,-7.08z"/>
   <path class="fil30" d="M28.7 26.56c0,1.99 -0,3.99 0,5.99 0,0.29 -0.03,0.58 -0.1,0.86 -0.2,0.82 -0.81,1.3 -1.64,1.31 -0.88,0.01 -1.51,-0.46 -1.73,-1.28 -0.1,-0.37 -0.11,-0.75 -0.11,-1.13 0,-3.97 -0.01,-7.95 0.02,-11.92 0,-0.5 -0.15,-0.6 -0.61,-0.59 -1.18,0.03 -2.36,0.03 -3.54,0 -0.99,-0.02 -1.56,-0.61 -1.53,-1.52 0.02,-0.66 0.38,-1.12 1.02,-1.32 0.3,-0.09 0.6,-0.11 0.91,-0.11 3.69,0 7.37,0 11.06,0 0.22,0 0.44,0 0.65,0.04 0.9,0.16 1.34,0.7 1.29,1.59 -0.04,0.76 -0.58,1.29 -1.45,1.32 -1.2,0.03 -2.4,0.04 -3.6,0 -0.54,-0.02 -0.66,0.15 -0.65,0.66 0.03,2.03 0.01,4.06 0.01,6.1z"/>
   <path class="fil30" d="M106.58 40.11c-0.01,0.72 -0.52,1.22 -1.25,1.22 -0.76,-0.01 -1.29,-0.54 -1.26,-1.27 0.02,-0.68 0.59,-1.2 1.3,-1.2 0.72,0.01 1.22,0.52 1.21,1.25z"/>
   <path class="fil31" d="M119.21 5.99c-0.04,0.65 -0.47,1.09 -0.88,1.48 -0.42,0.4 -0.79,0.86 -1.24,1.21 -0.31,0.24 -0.6,0.66 -1.12,0.55 -0.19,-0.04 -0.36,-0.08 -0.35,-0.33 0,-0.22 0.04,-0.4 0.3,-0.43 0.2,-0.03 0.3,-0.18 0.4,-0.33 0.64,-0.92 1.58,-1.59 2.26,-2.48 0.12,-0.16 0.34,-0.25 0.48,-0.2 0.25,0.08 0.04,0.36 0.15,0.52z"/>
   <path class="fil16" d="M100.45 5.99c-0,0.66 -0.46,1.07 -0.84,1.46 -0.42,0.42 -0.81,0.89 -1.27,1.25 -0.31,0.24 -0.64,0.67 -1.16,0.52 -0.34,-0.1 -0.42,-0.49 -0.14,-0.69 0.94,-0.68 1.58,-1.66 2.43,-2.42 0.11,-0.1 0.21,-0.2 0.29,-0.31 0.14,-0.21 0.33,-0.41 0.56,-0.33 0.23,0.08 0.02,0.37 0.12,0.52z"/>
   <path class="fil32" d="M81.7 6.47c-0,0.63 -0.43,1.09 -0.85,1.44 -0.43,0.36 -0.8,0.76 -1.16,1.16 -0.28,0.31 -0.79,0.27 -0.94,0.72 -0.01,0.04 -0.45,-0.07 -0.59,-0.25 -0.11,-0.15 -0.08,-0.37 0.09,-0.49 0.85,-0.56 1.35,-1.47 2.11,-2.12 0.25,-0.21 0.48,-0.45 0.66,-0.72 0.14,-0.2 0.34,-0.35 0.53,-0.3 0.25,0.06 0.04,0.35 0.14,0.55z"/>
   <path class="fil1" d="M77.56 8.82c-0.13,0.28 -0.21,0.49 -0.32,0.69 -0.23,0.42 -0.54,0.37 -0.87,0.05 -0.41,-0.39 -0.5,-0.83 -0.44,-1.34 0.05,-0.42 0.28,-0.53 0.61,-0.28 0.12,0.08 0.23,0.1 0.36,0.09 0.26,-0.01 0.4,0.06 0.24,0.34 -0.22,0.41 -0.08,0.57 0.42,0.44z"/>
   <path class="fil33" d="M115.01 8.41c-0.1,0.24 -0.18,0.46 -0.29,0.66 -0.21,0.39 -0.55,0.34 -0.86,0.05 -0.42,-0.39 -0.51,-0.83 -0.44,-1.34 0.06,-0.43 0.25,-0.51 0.62,-0.29 0.07,0.04 0.16,0.09 0.25,0.08 0.38,-0.02 0.49,0.07 0.29,0.46 -0.22,0.44 0.15,0.39 0.43,0.38z"/>
   <path class="fil34" d="M96.32 8.42c-0.31,0.27 -0.24,0.68 -0.56,0.85 -0.12,0.06 -0.23,0.19 -0.39,0.12 -0.46,-0.19 -0.89,-1.34 -0.66,-1.8 0.1,-0.2 0.26,-0.42 0.52,-0.16 0.11,0.12 0.25,0.14 0.4,0.13 0.33,-0.02 0.34,0.11 0.24,0.39 -0.16,0.42 -0.11,0.46 0.46,0.46z"/>
   <path class="fil35" d="M93.59 11.09c-0.17,0.28 -0.8,0.45 -1.01,0.28 -0.1,-0.08 -0.07,-0.21 -0,-0.23 0.67,-0.19 0.37,-0.76 0.41,-1.15 0.02,-0.32 0.09,-0.48 0.38,-0.41 0.28,0.07 0.57,-0.41 0.77,-0.03 0.22,0.42 -0.33,0.42 -0.5,0.64 -0.16,0.21 -0.22,0.36 -0.05,0.57 0.1,0.11 0.08,0.22 0.01,0.33z"/>
   <path class="fil36" d="M112.21 10.31c0.01,0.07 -0.01,0.16 0.02,0.21 0.2,0.26 0.23,0.55 0.01,0.77 -0.26,0.26 -0.62,0.09 -0.93,0.09 -0.16,0 -0.15,-0.17 -0.06,-0.22 0.59,-0.3 0.42,-0.84 0.45,-1.32 0,-0.06 0.06,-0.12 0.09,-0.18 0.16,0.1 0.2,0.25 0.19,0.41 -0.01,0.18 0.11,0.2 0.23,0.24z"/>
   <path class="fil37" d="M74.31 11.07c-0.01,-0.11 -0.02,-0.21 -0.02,-0.32 0.01,-0.64 0.28,-0.89 0.92,-0.86 0.1,0 0.18,0.05 0.22,0.13 0.06,0.12 0.01,0.2 -0.09,0.27 -0.2,0.15 -0.39,0.31 -0.59,0.46 -0.14,0.11 -0.08,0.49 -0.43,0.31z"/>
   <path class="fil30" d="M14.55 18.27l-6 0c0,-0.03 0,-0.07 0,-0.11 1.66,0 3.32,0 4.98,-0.01 0.26,0 0.54,0.1 0.78,-0.09 0.12,0.02 0.17,0.11 0.23,0.2z"/>
   <path class="fil38" d="M92.59 13.12c-0.36,0.22 -0.44,0.55 -0.51,0.94 -0.08,0.47 -0.76,0.67 -1.11,0.34 -0.12,-0.11 -0.22,-0.21 -0.39,-0.24 -0.16,-0.03 -0.41,0.02 -0.45,-0.21 -0.03,-0.2 0.08,-0.38 0.29,-0.47 -0.12,0.3 -0.27,0.62 0.29,0.56 0.12,-0.01 0.2,0.05 0.27,0.15 0.18,0.27 0.45,0.22 0.68,0.13 0.23,-0.09 0.43,-0.37 0.37,-0.55 -0.22,-0.61 0.18,-0.6 0.56,-0.65z"/>
   <path class="fil39" d="M71.79 13.83c0.27,-0.36 0.83,-0.47 0.83,-1.05 0,-0.08 -0.02,-0.14 -0.08,-0.18 0.12,-0.19 0.42,-0.25 0.4,-0.54 -0.02,-0.19 0.08,-0.2 0.22,-0.2 0.09,0 0.19,-0 0.24,0.09 0.08,0.15 -0.05,0.23 -0.14,0.32 -0.19,0.21 -0.57,0.26 -0.56,0.64 0,0.02 -0.02,0.04 -0.02,0.05 0.19,0.79 -0.57,0.6 -0.89,0.86z"/>
   <path class="fil40" d="M74.31 11.07c0.24,0.03 0.27,-0.24 0.43,-0.31 -0.03,0.15 0,0.3 0.1,0.42 0.09,0.11 0.06,0.23 0.02,0.35 -0.02,0.08 -0.03,0.17 -0.14,0.19 -0.07,-0.05 -0.08,-0.14 -0.11,-0.21 -0.05,0.07 -0.09,0.16 -0.19,0.16 0.02,0.09 0.16,0.07 0.18,0.16 -0.25,0.27 -0.5,-0.01 -0.75,-0.03 -0.16,-0.01 -0.11,-0.2 0.01,-0.28 0.18,-0.12 0.36,-0.24 0.45,-0.45z"/>
   <path class="fil41" d="M112.21 10.31c-0.13,0.04 -0.2,0.26 -0.35,0.16 -0.12,-0.08 0.01,-0.23 0.01,-0.34 0,-0.15 -0.05,-0.31 -0.08,-0.46l0 0c0.28,-0.13 0.63,0.04 0.87,-0.21 0.11,0.03 0.18,0.1 0.23,0.2 -0.08,0.15 -0.2,0.25 -0.35,0.32 -0.11,0.11 -0.22,0.22 -0.33,0.34z"/>
   <path class="fil42" d="M76.79 13.05c0.04,-0.16 0.26,-0.21 0.23,-0.39 -0.01,-0.04 -0.22,-0.04 -0.34,-0.05 0.35,-0.15 0.54,-0.47 0.77,-0.76 -0.03,0.23 -0.14,0.41 0.07,0.69 0.12,0.17 -0.25,0.55 -0.41,0.82 -0.12,-0.08 -0.01,-0.4 -0.31,-0.31z"/>
   <path class="fil43" d="M110.17 12.4c-0.01,-0.14 -0.08,-0.23 -0.23,-0.23 0.21,-0.22 0.6,-0.35 0.36,-0.87 0.24,0.13 0.52,0.01 0.59,0.27 0.05,0.21 -0.18,0.36 -0.35,0.44 -0.18,0.09 -0.2,0.3 -0.37,0.38z"/>
   <path class="fil44" d="M118.88 15.88c0.12,-0.24 0.33,-0.25 0.55,-0.17 0.09,0.03 0.07,0.12 0.02,0.18 -0.15,0.19 -0.23,0.48 -0.5,0.52 -0.21,0.03 -0.16,-0.18 -0.19,-0.32 -0.01,-0.1 0.04,-0.16 0.12,-0.22z"/>
   <path class="fil45" d="M102.49 13.86c-0.14,0.02 -0.18,-0.06 -0.17,-0.15 0.03,-0.3 0.21,-0.48 0.5,-0.55 0.11,-0.02 0.25,0.01 0.2,0.15 -0.08,0.27 -0.3,0.43 -0.53,0.55z"/>
   <path class="fil46" d="M121.78 13.29c-0.14,0.23 -0.3,0.45 -0.56,0.56 -0.15,0.06 -0.17,-0.08 -0.16,-0.19 0.03,-0.33 0.3,-0.43 0.55,-0.53 0.1,-0.04 0.15,0.05 0.17,0.16z"/>
   <path class="fil47" d="M81.44 16.91c-0.17,-0.06 -0.19,-0.19 -0.17,-0.31 0.06,-0.28 0.27,-0.41 0.53,-0.45 0.1,-0.02 0.21,0.04 0.16,0.13 -0.13,0.25 -0.28,0.5 -0.53,0.63z"/>
   <path class="fil35" d="M100.46 15.67c0.1,0.01 0.29,-0.02 0.26,0.1 -0.08,0.25 -0.23,0.52 -0.47,0.63 -0.25,0.11 -0.21,-0.15 -0.23,-0.3 -0.01,-0.31 0.23,-0.36 0.45,-0.43z"/>
   <path class="fil48" d="M91.52 12.06c-0.04,-0 -0.09,-0.01 -0.13,-0.01 0.18,-0.19 0.34,-0.39 0.15,-0.79 0.24,0.2 0.59,0.06 0.59,0.32 -0,0.31 -0.28,0.49 -0.61,0.49z"/>
   <path class="fil49" d="M83.75 14.33c-0.15,-0.03 -0.18,-0.09 -0.15,-0.2 0.07,-0.29 0.22,-0.49 0.52,-0.53 0.08,-0.01 0.16,0.07 0.14,0.18 -0.07,0.29 -0.34,0.39 -0.5,0.55z"/>
   <path class="fil50" d="M123.42 12.95c-0,-0.18 0.1,-0.28 0.22,-0.3 0.19,-0.03 0.31,0.11 0.33,0.28 0.02,0.14 -0.06,0.31 -0.23,0.31 -0.21,0.01 -0.2,-0.23 -0.32,-0.29z"/>
   <path class="fil51" d="M104.92 12.64c0.15,0.03 0.28,0.13 0.29,0.27 0.02,0.14 -0.04,0.31 -0.21,0.32 -0.21,0.02 -0.25,-0.17 -0.28,-0.32 -0.03,-0.14 0.05,-0.24 0.2,-0.27z"/>
   <path class="fil52" d="M110.81 13.9c-0.13,0.16 0.15,0.53 -0.24,0.54 -0.28,0.01 -0.63,0.36 -0.84,-0.12 0.47,0.13 0.83,-0.02 1.08,-0.43z"/>
   <path class="fil53" d="M122.63 14.55c-0.11,0.15 -0.22,0.33 -0.41,0.37 -0.08,0.01 -0.15,-0.15 -0.13,-0.25 0.04,-0.19 0.17,-0.31 0.38,-0.29 0.09,0.01 0.17,0.05 0.16,0.18z"/>
   <path class="fil54" d="M86.18 13.16c0.16,0.01 0.29,0.08 0.29,0.25 0.01,0.14 -0.06,0.27 -0.21,0.25 -0.18,-0.02 -0.28,-0.15 -0.29,-0.33 -0.01,-0.14 0.1,-0.17 0.21,-0.18z"/>
   <path class="fil55" d="M109.6 13.24c0.02,-0.09 0.03,-0.25 0.06,-0.25 0.36,-0.04 0.38,-0.37 0.51,-0.6 -0,0.07 -0.03,0.15 -0,0.21 0.16,0.39 0.06,0.58 -0.38,0.54 -0.06,-0.01 -0.12,0.07 -0.18,0.1z"/>
   <path class="fil56" d="M103.86 14.56c-0.09,0.13 -0.18,0.29 -0.35,0.29 -0.15,0 -0.12,-0.15 -0.11,-0.25 0.02,-0.17 0.15,-0.24 0.31,-0.22 0.09,0.01 0.17,0.06 0.15,0.18z"/>
   <path class="fil57" d="M100.46 15.67c-0.15,0.14 -0.3,0.29 -0.45,0.43 -0.08,-0 -0.16,-0.01 -0.25,-0.02 0.11,-0.25 0.2,-0.5 0.45,-0.65 0.02,0.15 0.09,0.23 0.24,0.24z"/>
   <path class="fil58" d="M74.59 11.83c-0.13,-0.04 -0.27,-0.08 -0.4,-0.12 0.26,-0.04 0.32,-0.29 0.44,-0.47 0.15,0.17 0.07,0.33 0.09,0.48 -0.04,0.04 -0.09,0.07 -0.13,0.11z"/>
   <path class="fil59" d="M84.69 15.38c-0.12,-0.43 0.03,-0.55 0.43,-0.45 -0.06,0.23 -0.23,0.34 -0.43,0.45z"/>
   <path class="fil47" d="M80.93 16.51c0.14,-0.29 0.22,-0.61 0.56,-0.74 -0.17,0.26 -0.18,0.64 -0.56,0.74z"/>
   <path class="fil60" d="M74.85 11.53c-0.01,-0.12 -0.01,-0.23 -0.02,-0.35 0.09,0 0.17,0.01 0.27,0.01 0.1,0 0.24,-0.01 0.25,0.13 0.01,0.25 -0.18,0.05 -0.27,0.09 -0.08,0.04 -0.16,0.08 -0.23,0.12z"/>
   <path class="fil61" d="M114.83 11.5c0.07,0.42 -0.11,0.62 -0.54,0.56 0.32,-0.06 0.33,-0.4 0.54,-0.56z"/>
   <path class="fil62" d="M93.59 11.09c-0,-0.11 -0.01,-0.22 -0.01,-0.33 0.16,0.03 0.35,-0.07 0.51,0.1 -0.13,0.18 -0.38,0.08 -0.5,0.23z"/>
   <path class="fil63" d="M90.96 13.14c-0.04,-0.37 0.41,-0.02 0.43,-0.3 0.22,0.16 0.16,0.25 -0.07,0.29 -0.12,0.02 -0.24,0.01 -0.36,0.01z"/>
   <path class="fil36" d="M112.67 9.46c-0.23,0.34 -0.58,0.16 -0.87,0.21 0.27,-0.18 0.59,-0.1 0.87,-0.21z"/>
   <path class="fil64" d="M118.88 15.88c0.01,0.1 -0.03,0.17 -0.12,0.22 -0.11,-0 -0.22,-0.01 -0.33,-0.01 0.11,-0.15 0.22,-0.3 0.33,-0.44 0.02,0.09 0.02,0.18 0.12,0.23z"/>
   <path class="fil65" d="M88.79 30.7c-0.02,-0.15 -0.01,-0.3 0.14,-0.38 0.15,-0.08 0.23,0.04 0.3,0.15 -0.2,-0.03 -0.32,0.09 -0.43,0.23z"/>
   <path class="fil66" d="M114.74 20.15c0.12,-0.25 0.26,-0.37 0.43,-0.03 -0.14,0.01 -0.29,0.02 -0.43,0.03z"/>
   <path class="fil67" d="M89.96 28.86c-0.38,-0.16 -0.14,-0.32 0.01,-0.47 -0,0.15 -0.01,0.31 -0.01,0.47z"/>
   <path class="fil68" d="M77.35 20.98c-0.09,0.01 -0.19,0.02 -0.21,-0.1 -0.03,-0.17 0.07,-0.26 0.21,-0.32 -0.01,0.14 -0.11,0.27 0,0.41z"/>
   <path class="fil36" d="M112.55 9.97c0.09,-0.14 0.2,-0.25 0.35,-0.31 0.02,0.26 -0.16,0.29 -0.35,0.31z"/>
   <path class="fil27" d="M111.23 15.6c-0.04,-0.53 0.34,-0.83 0.58,-1.2 0.06,-0.1 0.19,-0.2 0.32,-0.08 0.13,0.11 0.06,0.23 -0.03,0.33 -0.29,0.32 -0.35,0.59 0.04,0.92 0.22,0.19 0.37,0.16 0.58,0.07 0.08,-0.03 0.17,-0.1 0.24,0.01 0.06,0.09 0.01,0.17 -0.07,0.23 -0.16,0.09 -0.26,0.23 -0.21,0.4 0.17,0.59 -0.35,0.59 -0.65,0.78 -0.14,0.09 -0.31,-0.04 -0.36,-0.16 -0.16,-0.43 -0.5,-0.81 -0.43,-1.3z"/>
   <path class="fil27" d="M113.91 14.97c-0.19,-0.01 -0.22,-0.19 -0.15,-0.26 0.31,-0.33 0.23,-0.98 0.9,-1.03 0.29,-0.02 0.33,-0.4 0.52,-0.58 0.09,-0.09 0.19,-0.19 0.32,-0.07 0.1,0.09 0.08,0.2 0.01,0.29 -0.5,0.54 -1,1.07 -1.5,1.61 -0.02,0.02 -0.06,0.03 -0.1,0.05z"/>
   <path class="fil61" d="M114.5 12.91c-0.1,0.19 -0.23,0.15 -0.34,0.02 -0.12,-0.13 -0.09,-0.29 0.05,-0.37 0.27,-0.16 0.47,-0.44 0.86,-0.55 -0.18,0.3 -0.32,0.55 -0.47,0.8 -0.11,-0.04 -0.15,-0.01 -0.1,0.1z"/>
   <path class="fil69" d="M114.5 12.91c-0.11,0 -0.23,0.01 -0.25,-0.13 -0.01,-0.1 0.07,-0.15 0.17,-0.17 0.15,-0.02 0.17,0.08 0.18,0.19 -0.03,0.03 -0.07,0.07 -0.1,0.1z"/>
   <path class="fil28" d="M93.92 16c-0.06,0.38 0.17,0.85 -0.5,1 -0.24,0.05 -0.36,0.05 -0.48,-0.08 -0.68,-0.77 -0.62,-1.83 0.12,-2.53 0.09,-0.08 0.18,-0.2 0.32,-0.09 0.12,0.11 0.07,0.23 -0.02,0.33 -0.26,0.3 -0.44,0.6 0.01,0.89 0.06,0.16 0.19,0.18 0.34,0.18 0.2,0 0.31,0.07 0.21,0.29z"/>
   <path class="fil28" d="M95.14 15.01c-0.26,-0.06 -0.24,-0.27 -0.14,-0.37 0.33,-0.3 0.27,-0.93 0.91,-0.97 0.27,-0.02 0.34,-0.4 0.54,-0.59 0.08,-0.08 0.18,-0.15 0.29,-0.07 0.13,0.09 0.14,0.22 0.05,0.33 -0.46,0.57 -1.1,0.99 -1.51,1.62 -0.02,0.03 -0.1,0.04 -0.14,0.05z"/>
   <path class="fil70" d="M93.92 16c-0.02,-0.17 -0.12,-0.23 -0.28,-0.23 -0.16,0 -0.27,-0.06 -0.27,-0.24 0.14,0.12 0.3,0.16 0.49,0.12 0.14,-0.03 0.33,-0.22 0.4,0.02 0.06,0.22 -0.19,0.25 -0.34,0.32z"/>
   <path class="fil71" d="M95.55 12.61c0.13,-0.11 0.27,-0.21 0.49,-0.39 -0.09,0.35 0.03,0.67 -0.39,0.71 -0.07,-0.1 -0.06,-0.22 -0.11,-0.32z"/>
   <path class="fil72" d="M95.55 12.61c0.28,0.03 0.19,0.18 0.11,0.32 -0.26,-0.03 -0.31,-0.14 -0.11,-0.32z"/>
   <path class="fil29" d="M75.17 16.54c0.17,0.55 -0.16,0.78 -0.59,0.97 -0.22,0.1 -0.36,-0.04 -0.46,-0.18 -0.57,-0.8 -0.54,-1.61 0.08,-2.36 0.11,-0.13 0.24,-0.34 0.44,-0.19 0.18,0.14 0.01,0.28 -0.08,0.41 -0.35,0.54 -0.35,0.54 0.36,0.99 0.37,-0.08 0.33,0.12 0.24,0.35z"/>
   <path class="fil29" d="M78.09 13.65c-0.02,0.16 -0.14,0.25 -0.24,0.35 -0.38,0.43 -0.87,0.76 -1.17,1.26 -0.08,0.14 -0.24,0.26 -0.41,0.13 -0.16,-0.12 -0.03,-0.26 0.03,-0.38 0.12,-0.25 0.44,-0.39 0.38,-0.74 0.58,-0.02 0.81,-0.52 1.18,-0.85 0.09,-0.08 0.22,0.07 0.23,0.22z"/>
   <path class="fil29" d="M75.17 16.54c-0.01,-0.17 -0.02,-0.33 -0.24,-0.35 0.06,-0.03 0.12,-0.08 0.19,-0.09 0.14,-0.03 0.31,-0.2 0.42,0.02 0.11,0.21 -0.11,0.25 -0.23,0.33 -0.04,0.03 -0.08,0.06 -0.13,0.1z"/>
   <path class="fil29" d="M76.79 13.05c0.33,-0.12 0.37,0.05 0.31,0.31 -0.11,0.05 -0.22,0.15 -0.34,0.02 -0.12,-0.12 -0.02,-0.23 0.04,-0.34z"/>
   <g>
    <path class="fil30" d="M40.05 43.95c0.95,-1.1 2.03,-1.54 3.32,-1.48 1.63,0.08 2.85,1.18 3.01,2.81 0.2,1.99 0.07,3.99 0.07,5.98 0,0.8 -0.42,1.26 -1.02,1.35 -0.91,0.13 -1.45,-0.32 -1.47,-1.29 -0.02,-1.36 0,-2.72 -0.01,-4.08 -0.01,-0.4 -0.03,-0.8 -0.08,-1.19 -0.08,-0.63 -0.23,-1.24 -0.91,-1.49 -0.76,-0.28 -1.46,-0.12 -2.08,0.4 -0.62,0.52 -0.79,1.24 -0.81,2 -0.02,1.34 -0.02,2.68 -0.02,4.03 0,0.27 -0.01,0.54 -0.1,0.81 -0.2,0.59 -0.58,0.85 -1.25,0.83 -0.61,-0.02 -0.93,-0.27 -1.09,-0.86 -0.05,-0.19 -0.07,-0.39 -0.07,-0.59 -0,-3.65 -0.01,-7.29 0,-10.94 0,-1.03 0.56,-1.58 1.45,-1.45 0.67,0.1 1.04,0.59 1.05,1.43 0.01,1.2 0,2.39 0,3.74z"/>
    <path class="fil30" d="M7.34 46.44c0,1.56 0.01,3.12 -0,4.68 -0.01,0.93 -0.5,1.47 -1.31,1.49 -0.78,0.02 -1.31,-0.42 -1.41,-1.21 -0.03,-0.23 -0.03,-0.47 -0.03,-0.71 0,-2.9 0,-5.81 -0,-8.71 0,-0.83 0.11,-0.73 -0.71,-0.73 -0.78,-0 -1.56,0.01 -2.34,-0 -0.83,-0.02 -1.3,-0.46 -1.29,-1.16 0.02,-0.67 0.49,-1.09 1.29,-1.1 1.13,-0.02 2.25,-0.01 3.38,-0.01 1.82,0 3.63,-0.01 5.45,0 0.79,0 1.27,0.39 1.32,1.01 0.07,0.74 -0.43,1.24 -1.3,1.25 -0.85,0.02 -1.71,0.03 -2.56,-0.01 -0.42,-0.02 -0.51,0.13 -0.5,0.52 0.02,1.56 0.01,3.12 0.01,4.68z"/>
    <path class="fil30" d="M51.98 44c0.67,-0.76 1.43,-1.31 2.42,-1.48 2.27,-0.4 3.99,0.93 4.05,3.22 0.05,1.83 0.02,3.66 0.01,5.5 -0.01,0.86 -0.47,1.37 -1.21,1.38 -0.77,0.01 -1.27,-0.49 -1.28,-1.37 -0.02,-1.43 -0.01,-2.87 -0,-4.3 0,-0.42 -0.04,-0.83 -0.12,-1.24 -0.2,-0.97 -0.91,-1.43 -1.89,-1.25 -1.03,0.19 -1.72,0.99 -1.82,2.09 -0.14,1.47 -0.05,2.94 -0.08,4.41 -0.01,0.27 0.01,0.54 -0.07,0.81 -0.18,0.56 -0.58,0.86 -1.18,0.86 -0.59,0 -1.01,-0.3 -1.16,-0.87 -0.07,-0.26 -0.1,-0.54 -0.1,-0.81 -0.01,-2.31 -0.01,-4.61 0,-6.92 0,-0.23 0.03,-0.47 0.08,-0.7 0.13,-0.55 0.5,-0.85 1.04,-0.86 0.55,-0.01 0.95,0.24 1.13,0.76 0.08,0.23 0.11,0.48 0.17,0.78z"/>
    <path class="fil30" d="M125.41 52.61c-1.02,0.04 -2.02,-0.15 -2.93,-0.71 -0.59,-0.36 -1.04,-0.85 -1.21,-1.54 -0.15,-0.63 0.04,-1.11 0.54,-1.34 0.52,-0.23 1.06,-0.06 1.39,0.49 0.4,0.66 0.85,1.23 1.65,1.39 0.59,0.12 1.2,0.15 1.76,-0.11 0.39,-0.18 0.74,-0.45 0.74,-0.92 -0,-0.47 -0.26,-0.8 -0.7,-1.01 -0.65,-0.31 -1.35,-0.42 -2.02,-0.62 -0.64,-0.19 -1.29,-0.38 -1.88,-0.7 -1.85,-1.01 -1.92,-3.28 -0.14,-4.42 1.56,-0.99 4.42,-0.87 5.89,0.25 0.28,0.21 0.5,0.47 0.66,0.78 0.28,0.56 0.2,1.08 -0.18,1.39 -0.43,0.34 -1.11,0.32 -1.55,-0.09 -0.22,-0.21 -0.41,-0.46 -0.62,-0.69 -0.64,-0.7 -1.7,-0.9 -2.54,-0.47 -0.32,0.16 -0.58,0.39 -0.59,0.78 -0.01,0.38 0.24,0.6 0.53,0.76 0.64,0.36 1.37,0.46 2.07,0.65 0.7,0.19 1.4,0.37 2.04,0.72 0.88,0.48 1.5,1.13 1.48,2.22 -0.02,1.17 -0.51,2.06 -1.55,2.61 -0.87,0.46 -1.82,0.59 -2.84,0.56z"/>
    <path class="fil30" d="M30.08 52.61c-2.95,-0 -4.75,-1.73 -4.86,-4.69 -0.07,-1.77 0.35,-3.36 1.82,-4.51 1.81,-1.42 4.86,-1.3 6.57,0.22 0.47,0.42 0.83,0.91 0.92,1.56 0.07,0.51 -0.13,0.9 -0.59,1.12 -0.46,0.22 -0.92,0.21 -1.28,-0.22 -0.19,-0.22 -0.35,-0.46 -0.53,-0.69 -0.61,-0.83 -1.42,-1.18 -2.43,-0.98 -0.96,0.19 -1.48,0.86 -1.76,1.74 -0.3,0.96 -0.3,1.93 0.03,2.89 0.3,0.89 0.9,1.49 1.85,1.65 0.96,0.16 1.75,-0.18 2.33,-0.96 0.2,-0.28 0.37,-0.58 0.57,-0.86 0.32,-0.44 0.75,-0.56 1.25,-0.39 0.46,0.16 0.77,0.73 0.68,1.24 -0.18,1.03 -0.83,1.71 -1.7,2.21 -0.86,0.49 -1.67,0.66 -2.88,0.66z"/>
    <path class="fil30" d="M76.25 45.7c0,1.87 0,3.74 -0,5.61 -0,0.64 -0.34,1.12 -0.85,1.27 -0.52,0.16 -1.07,-0.01 -1.37,-0.42 -0.2,-0.27 -0.28,-0.59 -0.28,-0.92 -0,-3.7 -0.01,-7.4 0.01,-11.11 0.01,-0.9 0.51,-1.39 1.28,-1.36 0.75,0.02 1.2,0.55 1.2,1.44 0.01,1.83 0,3.66 0,5.5z"/>
    <path class="fil30" d="M106.57 47.59c0,1.23 0.02,2.47 -0.01,3.7 -0.02,0.87 -0.52,1.35 -1.31,1.33 -0.54,-0.02 -0.89,-0.3 -1.06,-0.78 -0.08,-0.23 -0.12,-0.5 -0.12,-0.74 -0.01,-2.38 -0.01,-4.75 -0,-7.13 0,-0.89 0.41,-1.42 1.11,-1.49 0.78,-0.08 1.38,0.46 1.39,1.31 0.02,1.27 0.01,2.54 0.01,3.81l-0.01 0z"/>
    <path class="fil30" d="M98.08 49.04c-0.43,1.01 -1.34,1.58 -2.36,1.49 -0.98,-0.09 -1.77,-0.82 -2,-1.87 -0.08,-0.39 -0.11,-0.79 -0.16,-1.18 0.03,-0.44 0.08,-0.87 0.2,-1.29 0.31,-1.12 1.07,-1.76 2.11,-1.79 1.06,-0.04 1.92,0.58 2.27,1.67 0.31,0.99 0.36,2 -0.05,2.98zm2.6 -5.83c-0.14,-0.49 -0.47,-0.71 -0.96,-0.73 -0.82,-0.04 -1.21,0.41 -1.4,1.61 -0.05,-0.1 -0.09,-0.2 -0.16,-0.28 -2.08,-2.24 -5.63,-1.58 -6.72,1.25 -0.5,1.29 -0.51,2.64 -0.19,3.96 0.61,2.58 2.7,3.89 5.08,3.25 0.77,-0.21 1.35,-0.71 1.91,-1.33 0,0.66 0.06,1.24 -0.01,1.81 -0.16,1.18 -0.75,1.67 -1.96,1.8 -1.16,0.12 -2.09,-0.2 -2.8,-1.18 -0.46,-0.64 -1.21,-0.73 -1.71,-0.3 -0.48,0.4 -0.51,1.11 -0.05,1.72 0.39,0.52 0.93,0.86 1.53,1.1 1.34,0.54 2.73,0.56 4.13,0.34 2.13,-0.34 3.04,-1.27 3.38,-3.38 0.05,-0.34 0.06,-0.69 0.06,-1.03 0.01,-2.53 0,-5.05 0,-7.57 0,-0.34 -0.02,-0.68 -0.12,-1.02z"/>
    <path class="fil30" d="M18.91 44.32c0.84,0.26 1.57,1.33 1.52,2.18 -0.01,0.27 -0.18,0.22 -0.33,0.22 -0.63,0 -1.27,0 -1.9,0 -0.63,0 -1.27,0 -1.9,-0 -0.15,-0 -0.32,0.06 -0.32,-0.22 0.01,-1.55 1.47,-2.64 2.93,-2.19zm3.51 5.03c-0.42,-0.26 -0.86,-0.23 -1.25,0.13 -0.39,0.36 -0.77,0.72 -1.21,1 -1.73,1.1 -3.74,0.16 -3.98,-1.87 -0.04,-0.3 0.02,-0.43 0.36,-0.42 0.78,0.02 1.56,0.01 2.5,0.01 0.82,-0.04 1.8,0.07 2.78,-0.07 0.94,-0.13 1.29,-0.53 1.28,-1.49 -0,-1.69 -1.06,-3.23 -2.64,-3.85 -3.23,-1.28 -6.35,0.49 -6.83,3.92 -0.24,1.68 0.05,3.27 1.29,4.55 1.41,1.46 4.24,1.83 6.26,0.84 0.72,-0.35 1.33,-0.82 1.65,-1.58 0.18,-0.42 0.25,-0.88 -0.2,-1.17z"/>
    <path class="fil30" d="M114.97 44.32c0.83,0.27 1.57,1.37 1.5,2.2 -0.02,0.28 -0.2,0.2 -0.34,0.21 -0.63,0.01 -1.27,0 -1.9,0 -0.63,0 -1.27,0 -1.9,0 -0.16,0 -0.31,0.02 -0.31,-0.24 0.03,-1.55 1.5,-2.64 2.95,-2.16zm2.21 5.19c-0.45,0.39 -0.87,0.82 -1.41,1.1 -1.69,0.91 -3.63,-0.15 -3.76,-2.04 -0.02,-0.28 0.06,-0.39 0.35,-0.38 0.8,0.02 1.6,0.01 2.56,0.01 0.8,-0.04 1.77,0.07 2.73,-0.06 0.94,-0.13 1.32,-0.55 1.29,-1.48 -0.03,-1.05 -0.37,-1.99 -1.09,-2.77 -1.34,-1.45 -3.73,-1.87 -5.75,-1.01 -0.7,0.3 -1.28,0.75 -1.73,1.37 -0.84,1.16 -1.05,2.49 -0.96,3.88 0.15,2.22 1.43,3.82 3.43,4.33 0.88,0.23 1.77,0.25 2.65,0.12 1.3,-0.2 2.45,-0.7 3.12,-1.93 0.23,-0.42 0.31,-0.87 -0.1,-1.25 -0.33,-0.3 -0.91,-0.23 -1.33,0.13z"/>
    <path class="fil30" d="M67.91 49.79c-0.92,1.32 -2.96,1.3 -3.75,-0.1 -0.79,-1.39 -0.79,-2.86 -0.02,-4.25 0.85,-1.54 3.06,-1.46 3.93,0.09 0.35,0.62 0.45,1.29 0.45,1.99 0.01,0.81 -0.12,1.59 -0.6,2.27zm-1 -7.28c-2.3,-0.38 -4.48,0.66 -5.35,2.63 -0.7,1.59 -0.67,3.21 0,4.81 0.25,0.61 0.64,1.14 1.17,1.55 1.75,1.36 3.69,1.48 5.64,0.64 1.96,-0.85 2.64,-2.57 2.66,-3.73 0,-3.64 -1.49,-5.45 -4.13,-5.89z"/>
    <path class="fil30" d="M86.16 49.07c-0.36,1.07 -1.18,1.67 -2.22,1.68 -1.05,0 -1.86,-0.59 -2.21,-1.67 -0.35,-1.08 -0.34,-2.18 0.08,-3.24 0.38,-0.95 1.17,-1.51 2.13,-1.49 1.03,0.03 1.74,0.54 2.15,1.48 0.24,0.56 0.32,1.15 0.32,1.75 0.01,0.51 -0.07,1.02 -0.23,1.5zm-2.24 -6.6c-3.02,0 -4.95,1.97 -4.96,5.05 -0.01,3.11 1.93,5.1 4.97,5.1 3.06,0 4.99,-1.96 4.99,-5.07 0,-3.09 -1.96,-5.09 -5,-5.08z"/>
   </g>
   <g>
    <path class="fil28" d="M44.05 60.73c-0.35,1.38 -0.71,2.77 -1.06,4.15 -0.13,0.51 -0.25,1.03 -0.91,1.04 -0.7,0.01 -0.84,-0.54 -0.97,-1.07 -0.35,-1.38 -0.7,-2.76 -1.19,-4.12 0,1.2 0,2.39 0,3.59 0,0.26 0.02,0.51 -0,0.76 -0.04,0.45 -0.17,0.88 -0.73,0.84 -0.49,-0.04 -0.62,-0.42 -0.61,-0.86 0,-1.27 -0,-2.53 -0,-3.8 0,-0.48 0.01,-0.96 0,-1.44 -0.02,-0.62 -0.04,-1.2 0.81,-1.3 0.99,-0.11 1.38,0.1 1.62,0.99 0.33,1.2 0.65,2.39 0.97,3.58 0.02,0.05 0.05,0.1 0.13,0.24 0.37,-1.36 0.71,-2.65 1.06,-3.94 0.21,-0.77 0.68,-1 1.63,-0.86 0.73,0.1 0.78,0.58 0.77,1.16 -0.02,1.75 -0.01,3.5 -0,5.24 0,0.48 -0.05,0.97 -0.65,0.98 -0.61,0.01 -0.69,-0.48 -0.69,-0.96 -0.01,-1.41 -0,-2.81 -0,-4.22 -0.05,0 -0.09,0 -0.14,0z"/>
    <path class="fil28" d="M96.45 63.14c0,-0.68 -0,-1.35 0,-2.02 0,-0.3 0.11,-0.56 0.45,-0.63 0.3,-0.06 0.61,-0 0.7,0.31 0.11,0.43 0.27,0.29 0.5,0.12 0.72,-0.55 1.51,-0.64 2.3,-0.23 0.79,0.41 0.86,1.18 0.84,1.97 -0.02,0.82 -0,1.63 -0.01,2.45 0,0.44 -0.16,0.8 -0.65,0.81 -0.51,0.02 -0.67,-0.37 -0.68,-0.79 -0.03,-0.84 0,-1.69 -0.03,-2.53 -0.01,-0.53 -0.11,-1.04 -0.8,-1.07 -0.7,-0.03 -1.15,0.34 -1.22,1.02 -0.08,0.78 -0.03,1.57 -0.05,2.36 -0.01,0.5 -0.06,1.04 -0.72,1.02 -0.61,-0.01 -0.64,-0.52 -0.64,-0.99 0,-0.59 0,-1.18 0,-1.77l0 0z"/>
    <path class="fil28" d="M107.4 61.24c0.57,-0.5 1.06,-0.79 1.69,-0.78 1.1,0.01 1.75,0.57 1.8,1.67 0.04,0.98 0.01,1.97 0.01,2.95 0,0.43 -0.12,0.82 -0.63,0.83 -0.57,0.01 -0.66,-0.41 -0.67,-0.87 -0.01,-0.82 0.01,-1.63 -0.04,-2.44 -0.03,-0.54 -0.14,-1.1 -0.9,-1.08 -0.72,0.02 -1.09,0.46 -1.16,1.1 -0.08,0.69 -0.03,1.4 -0.04,2.11 -0,0.22 0.02,0.46 -0.04,0.67 -0.08,0.33 -0.3,0.54 -0.67,0.53 -0.32,-0.01 -0.59,-0.21 -0.6,-0.49 -0.03,-1.49 -0.03,-2.98 -0.01,-4.46 0,-0.26 0.2,-0.46 0.5,-0.49 0.46,-0.04 0.66,0.23 0.74,0.76z"/>
    <path class="fil28" d="M91.15 61.25c0.59,-0.55 1.12,-0.82 1.79,-0.79 1.02,0.04 1.64,0.58 1.7,1.6 0.05,1.01 0.02,2.02 0.02,3.03 0,0.44 -0.13,0.81 -0.64,0.82 -0.51,0.01 -0.65,-0.36 -0.66,-0.8 -0.01,-0.84 0,-1.69 -0.04,-2.53 -0.03,-0.54 -0.15,-1.09 -0.9,-1.07 -0.72,0.02 -1.09,0.47 -1.16,1.11 -0.08,0.78 -0.04,1.57 -0.04,2.36 0,0.5 -0.12,0.95 -0.71,0.93 -0.54,-0.02 -0.65,-0.45 -0.65,-0.91 0,-1.21 0,-2.41 0,-3.62 0,-0.37 0,-0.77 0.47,-0.88 0.49,-0.11 0.73,0.17 0.82,0.76z"/>
    <path class="fil28" d="M22.19 63.24c0,-0.34 0,-0.67 0,-1.01 -0,-0.32 0.06,-0.63 -0.42,-0.77 -0.41,-0.12 -0.46,-0.6 -0.09,-0.76 0.52,-0.22 0.51,-0.57 0.51,-1 0,-0.49 0.01,-1.04 0.68,-1.04 0.68,-0 0.67,0.55 0.67,1.04 -0.01,0.45 -0.09,0.93 0.64,0.87 0.23,-0.02 0.43,0.18 0.45,0.43 0.03,0.31 -0.21,0.51 -0.46,0.49 -0.64,-0.03 -0.65,0.34 -0.63,0.8 0.02,0.59 0,1.18 0,1.77 0,0.58 0.17,0.95 0.86,0.75 0.32,-0.09 0.57,-0 0.64,0.35 0.06,0.34 -0.15,0.5 -0.44,0.63 -1.23,0.56 -2.31,-0.05 -2.41,-1.37 -0.03,-0.39 -0,-0.79 -0,-1.18l-0 0z"/>
    <path class="fil28" d="M81.68 62.13c0,0.95 0.02,1.91 -0.01,2.87 -0.02,0.46 -0.1,0.95 -0.73,0.93 -0.57,-0.03 -0.65,-0.5 -0.65,-0.92 -0.02,-1.91 -0.02,-3.83 -0,-5.73 0,-0.42 0.15,-0.81 0.65,-0.84 0.56,-0.03 0.73,0.39 0.74,0.83 0.02,0.95 0.01,1.91 0.01,2.87z"/>
    <path class="fil28" d="M32.37 62.04c0,-0.9 -0.01,-1.8 0,-2.7 0.01,-0.44 0.11,-0.89 0.66,-0.92 0.61,-0.02 0.74,0.44 0.74,0.92 0.01,1.88 0.01,3.76 -0.01,5.65 -0,0.42 -0.08,0.89 -0.65,0.92 -0.63,0.03 -0.72,-0.47 -0.73,-0.93 -0.03,-0.98 -0.01,-1.97 -0.01,-2.95l-0 0z"/>
    <path class="fil28" d="M102.96 63.14c0,-0.62 -0.02,-1.24 0,-1.86 0.02,-0.42 0.16,-0.81 0.66,-0.82 0.55,-0.02 0.72,0.39 0.73,0.84 0.02,1.26 0.02,2.53 -0.01,3.79 -0.01,0.4 -0.13,0.81 -0.65,0.83 -0.58,0.02 -0.7,-0.42 -0.72,-0.85 -0.04,-0.65 -0.01,-1.29 -0.01,-1.94 0,0 -0,0 -0,0z"/>
    <path class="fil28" d="M61.93 63.23c0,0.62 0,1.24 0,1.86 -0,0.44 -0.16,0.81 -0.65,0.83 -0.49,0.02 -0.69,-0.32 -0.7,-0.78 -0.01,-1.29 -0.01,-2.59 -0,-3.88 0,-0.45 0.19,-0.78 0.69,-0.77 0.51,0.01 0.65,0.36 0.66,0.81 0,0.64 0,1.3 0,1.94z"/>
    <path class="fil28" d="M20.15 63.22c0,0.65 0,1.3 0,1.94 -0,0.41 -0.19,0.72 -0.63,0.75 -0.46,0.03 -0.68,-0.31 -0.69,-0.69 -0.03,-1.35 -0.03,-2.7 -0.01,-4.05 0,-0.41 0.24,-0.69 0.69,-0.69 0.47,0 0.64,0.3 0.64,0.72 0.01,0.67 0,1.35 0,2.03l-0 0z"/>
    <path class="fil28" d="M10.29 63.2c0,0.62 0.02,1.24 -0,1.86 -0.02,0.45 -0.16,0.88 -0.71,0.86 -0.49,-0.02 -0.63,-0.4 -0.63,-0.84 0,-1.27 0,-2.53 -0,-3.8 0,-0.44 0.13,-0.8 0.65,-0.8 0.5,0 0.69,0.34 0.7,0.78 0.02,0.64 0,1.3 0,1.94z"/>
    <path class="fil28" d="M103.62 58.49c0.43,0.01 0.68,0.22 0.71,0.61 0.03,0.44 -0.26,0.69 -0.67,0.7 -0.37,0.01 -0.67,-0.21 -0.68,-0.6 -0.01,-0.41 0.23,-0.67 0.64,-0.7z"/>
    <path class="fil28" d="M19.5 58.49c0.37,0.05 0.65,0.21 0.65,0.63 0,0.45 -0.25,0.69 -0.67,0.68 -0.37,0 -0.65,-0.23 -0.66,-0.62 -0.01,-0.43 0.27,-0.65 0.68,-0.69z"/>
    <path class="fil28" d="M61.94 59.13c-0.02,0.45 -0.3,0.67 -0.7,0.66 -0.35,-0.01 -0.65,-0.21 -0.65,-0.62 0.01,-0.43 0.28,-0.67 0.7,-0.66 0.37,0.01 0.61,0.23 0.65,0.62z"/>
    <path class="fil28" d="M9.62 58.49c0.39,0.05 0.66,0.24 0.66,0.64 0,0.43 -0.28,0.68 -0.69,0.67 -0.37,-0 -0.64,-0.22 -0.63,-0.63 0,-0.44 0.27,-0.64 0.67,-0.68z"/>
    <path class="fil28" d="M5.22 64.13c-0.35,0.5 -1.86,0.78 -2.46,0.55 -0.3,-0.12 -0.23,-0.35 -0.23,-0.56 -0.01,-0.65 -0,-1.3 -0,-1.94 0,-0.62 0.04,-1.24 -0.01,-1.86 -0.05,-0.55 0.18,-0.66 0.68,-0.65 0.92,0.02 1.91,-0.04 2.31,1 0.45,1.16 0.48,2.38 -0.29,3.47zm1.93 -3.08c-0.37,-1.6 -1.12,-2.33 -2.76,-2.5 -0.81,-0.08 -1.63,-0.05 -2.45,-0.02 -0.61,0.01 -0.91,0.38 -0.92,0.98 -0,0.9 0,1.8 0,2.7 0,0.87 -0,1.74 0,2.62 0,0.64 0.29,0.99 0.98,0.97 0.82,-0.03 1.64,0.01 2.45,-0.03 1.25,-0.06 2.2,-0.78 2.56,-1.97 0.27,-0.9 0.34,-1.82 0.12,-2.75z"/>
    <path class="fil28" d="M114.96 64.77c-0.81,-0.01 -1.26,-0.6 -1.26,-1.65 0,-1.04 0.48,-1.67 1.26,-1.67 0.79,0 1.33,0.7 1.32,1.72 -0,1 -0.51,1.61 -1.32,1.6zm2.19 -4.28c-0.53,-0.15 -0.7,0.28 -0.87,0.67 -1.27,-0.92 -2.42,-0.93 -3.24,-0.08 -0.87,0.89 -0.95,2.77 -0.17,3.85 0.74,1.03 1.77,1.11 3.38,0.26 0.03,0.63 0.14,1.31 -0.58,1.61 -0.72,0.3 -1.42,0.25 -1.99,-0.41 -0.28,-0.33 -0.69,-0.49 -1.02,-0.11 -0.29,0.34 -0.12,0.73 0.18,0.97 1.08,0.85 2.3,0.84 3.52,0.43 1.07,-0.35 1.25,-1.28 1.26,-2.25 0.01,-1.3 0.01,-2.59 0,-3.89 -0,-0.41 0.08,-0.89 -0.46,-1.05z"/>
    <path class="fil28" d="M14.31 64.77c-0.79,-0.02 -1.28,-0.67 -1.26,-1.68 0.02,-1 0.56,-1.66 1.33,-1.65 0.78,0.01 1.35,0.77 1.33,1.75 -0.02,0.96 -0.58,1.59 -1.4,1.57zm2.66 -3.28c0,-0.37 0.09,-0.84 -0.42,-0.99 -0.53,-0.15 -0.73,0.23 -0.87,0.66 -1.3,-0.92 -2.5,-0.92 -3.31,-0.04 -0.85,0.93 -0.89,2.85 -0.09,3.86 0.8,1.01 1.88,1.08 3.35,0.17 0.06,1.46 -0.58,2.07 -1.78,1.77 -0.34,-0.09 -0.59,-0.31 -0.82,-0.56 -0.28,-0.3 -0.64,-0.42 -0.97,-0.11 -0.35,0.34 -0.17,0.71 0.13,0.96 1.05,0.9 2.28,0.9 3.51,0.5 1.01,-0.32 1.28,-1.18 1.28,-2.16 -0,-1.35 0.01,-2.71 -0.01,-4.06z"/>
    <path class="fil28" d="M75.52 61.9c-1.05,0.09 -0.89,-0.54 -0.85,-1.18 -0.07,-0.62 -0.11,-1.17 0.88,-1.09 1.25,0.1 1.73,0.33 1.71,1.13 -0.02,0.78 -0.56,1.04 -1.74,1.14zm1.44 -3.29c-0.95,-0.18 -1.91,-0.08 -2.86,-0.09 -0.57,0 -0.88,0.31 -0.87,0.9 0.01,0.93 0,1.86 0,2.78 0,0.9 0,1.8 0,2.7 0,0.52 0.09,1.02 0.74,1 0.64,-0.02 0.7,-0.53 0.69,-1.04 -0,-0.39 0.03,-0.79 -0.01,-1.18 -0.07,-0.61 0.21,-0.79 0.78,-0.76 0.5,0.03 1.02,0.02 1.51,-0.06 1.17,-0.17 1.78,-0.94 1.78,-2.18 -0,-1.19 -0.59,-1.88 -1.76,-2.09z"/>
    <path class="fil28" d="M56.22 64.89c-0.63,0.06 -1.22,-0.48 -1.37,-1.24 -0.19,-0.97 0.21,-1.91 0.91,-2.13 0.89,-0.29 1.62,0.47 1.62,1.68 -0,0.99 -0.44,1.62 -1.16,1.69zm2.52 -5.66c0,-0.4 -0.07,-0.75 -0.56,-0.78 -0.54,-0.02 -0.66,0.33 -0.66,0.77 -0,0.61 0,1.21 0,1.86 -1.67,-0.87 -2.78,-0.79 -3.53,0.21 -0.77,1.02 -0.67,2.97 0.19,3.94 0.82,0.93 1.75,0.92 3.3,-0.03 0.08,0.42 0.26,0.79 0.77,0.7 0.45,-0.08 0.5,-0.47 0.5,-0.86 0,-1.94 0,-3.87 0,-5.82z"/>
    <path class="fil28" d="M29.26 63.73c-0.01,0.75 -0.6,1.33 -1.4,1.33 -0.39,-0.05 -0.77,-0.19 -0.81,-0.72 -0.04,-0.55 0.98,-1.1 1.93,-1.08 0.4,0.01 0.27,0.28 0.27,0.47zm1.52 1.39c-0.26,-0.77 -0.17,-1.56 -0.17,-2.34 -0.02,-1.8 -0.52,-2.32 -2.31,-2.31 -1.01,0 -1.72,0.23 -2.09,0.7 -0.25,0.32 -0.49,0.69 -0.11,1.05 0.42,0.39 0.7,0.07 0.97,-0.26 0.46,-0.58 1.06,-0.69 1.74,-0.45 0.31,0.11 0.42,0.37 0.43,0.66 0.01,0.31 -0.28,0.31 -0.49,0.36 -0.63,0.15 -1.27,0.24 -1.89,0.43 -0.73,0.22 -1.22,0.69 -1.16,1.54 0.05,0.75 0.62,1.33 1.42,1.43 0.57,0.07 1.13,-0.03 1.62,-0.35 0.39,-0.25 0.7,-0.41 1.03,0.1 0.16,0.25 0.44,0.33 0.74,0.16 0.29,-0.17 0.37,-0.44 0.27,-0.72z"/>
    <path class="fil28" d="M66.51 64.77c-0.23,0.15 -0.51,0.22 -0.7,0.3 -0.52,-0.02 -0.87,-0.18 -0.98,-0.63 -0.11,-0.44 0.17,-0.69 0.55,-0.82 0.21,-0.08 0.44,-0.19 0.65,-0.17 0.33,0.03 0.77,-0.45 0.96,-0.01 0.2,0.48 0,1.02 -0.47,1.33zm1.83 -2.78c-0.09,-0.91 -0.57,-1.36 -1.46,-1.48 -0.56,-0.07 -1.13,-0.08 -1.69,0.02 -0.48,0.08 -0.93,0.26 -1.23,0.67 -0.24,0.34 -0.4,0.75 -0.02,1.06 0.39,0.31 0.65,0.01 0.9,-0.3 0.46,-0.59 1.06,-0.69 1.74,-0.46 0.31,0.11 0.43,0.35 0.42,0.66 -0.01,0.3 -0.27,0.32 -0.48,0.37 -0.58,0.13 -1.16,0.24 -1.73,0.37 -0.88,0.21 -1.39,0.83 -1.33,1.6 0.05,0.77 0.67,1.34 1.53,1.42 0.55,0.05 1.09,-0.06 1.53,-0.36 0.42,-0.29 0.72,-0.35 1.02,0.13 0.14,0.22 0.41,0.3 0.68,0.18 0.27,-0.11 0.37,-0.33 0.33,-0.74 -0.37,-0.94 -0.1,-2.06 -0.21,-3.14z"/>
    <path class="fil28" d="M86.01 64.9c-0.17,0.09 -0.37,0.12 -0.52,0.17 -0.46,-0.04 -0.83,-0.16 -0.93,-0.62 -0.1,-0.48 0.19,-0.72 0.6,-0.86 0.16,-0.05 0.33,-0.13 0.49,-0.11 0.38,0.04 0.89,-0.53 1.09,-0.02 0.21,0.57 -0.14,1.14 -0.73,1.44zm2.25 0.07c-0.26,-0.73 -0.2,-1.5 -0.2,-2.26 -0.01,-1.8 -0.45,-2.25 -2.24,-2.25 -0.72,-0.01 -1.42,0.06 -1.98,0.58 -0.33,0.31 -0.65,0.75 -0.25,1.16 0.42,0.44 0.73,0.05 1.02,-0.3 0.48,-0.57 1.09,-0.64 1.76,-0.38 0.27,0.11 0.35,0.37 0.37,0.62 0.04,0.32 -0.27,0.32 -0.47,0.37 -0.63,0.15 -1.27,0.25 -1.89,0.42 -0.84,0.23 -1.24,0.81 -1.17,1.61 0.07,0.75 0.65,1.29 1.47,1.37 0.61,0.06 1.18,-0.09 1.68,-0.43 0.33,-0.22 0.57,-0.28 0.82,0.11 0.18,0.27 0.47,0.43 0.81,0.24 0.35,-0.2 0.39,-0.51 0.27,-0.87z"/>
    <path class="fil28" d="M49.68 61.39c0.58,-0.02 1.31,0.55 1.19,1.04 -0.16,0.69 -0.81,0.09 -1.18,0.35 -0.36,-0.23 -0.95,0.31 -1.12,-0.35 -0.12,-0.44 0.56,-1.02 1.11,-1.04zm1.28 3.2c-0.81,0.61 -1.61,0.63 -2.11,0.01 -0.21,-0.26 -0.44,-0.6 -0.29,-0.92 0.13,-0.3 0.5,-0.1 0.76,-0.13 0.25,-0.03 0.51,-0.01 0.76,-0.01l0 0.03c0.5,-0.03 1.01,-0.04 1.51,-0.1 0.53,-0.06 0.72,-0.42 0.65,-0.9 -0.14,-0.93 -0.59,-1.64 -1.51,-1.97 -1.22,-0.44 -2.63,-0.01 -3.23,0.97 -0.7,1.14 -0.53,2.84 0.36,3.67 0.89,0.83 2.64,0.95 3.62,0.22 0.38,-0.28 0.9,-0.66 0.55,-1.16 -0.42,-0.6 -0.76,0.05 -1.08,0.28z"/>
    <path class="fil28" d="M123.13 64.96c0.3,0.05 0.51,0.2 0.51,0.49 0,0.28 -0.16,0.48 -0.47,0.48 -0.29,0 -0.47,-0.16 -0.48,-0.46 -0.01,-0.31 0.21,-0.43 0.44,-0.51z"/>
    <path class="fil28" d="M127.79 64.96c0.27,0.06 0.48,0.19 0.47,0.5 -0.01,0.3 -0.18,0.47 -0.48,0.47 -0.31,0 -0.47,-0.19 -0.47,-0.48 0,-0.29 0.21,-0.44 0.48,-0.49z"/>
    <path class="fil28" d="M125.95 65.45c-0.05,0.29 -0.18,0.48 -0.49,0.48 -0.3,-0.01 -0.47,-0.17 -0.48,-0.47 -0,-0.31 0.2,-0.47 0.47,-0.48 0.29,-0 0.44,0.2 0.49,0.47z"/>
    <path class="fil28" d="M120.85 65.93c-0.28,-0.03 -0.47,-0.16 -0.47,-0.47 -0.01,-0.31 0.19,-0.48 0.47,-0.48 0.27,-0.01 0.44,0.18 0.46,0.44 0.02,0.3 -0.15,0.47 -0.45,0.51z"/>
    <path class="fil28" d="M130.57 65.49c-0.02,0.28 -0.2,0.44 -0.49,0.43 -0.27,-0.01 -0.44,-0.19 -0.44,-0.46 0,-0.29 0.17,-0.49 0.47,-0.49 0.28,0.01 0.47,0.18 0.46,0.52z"/>
   </g>
  </g>
 </g>
</svg>
